<svg width="433" height="480" viewBox="0 0 433 480" fill="none" xmlns="http://www.w3.org/2000/svg">
<g id="lsb-guide-cover/addons">
<g id="Path 2" filter="url(#filter0_dd)">
<path fill-rule="evenodd" clip-rule="evenodd" d="M220.652 157.044C219.438 157.672 217.292 158.291 214.758 158.922H122.154C113.375 158.922 106.258 166.042 106.258 174.825V238.339C105.538 243.12 104.708 247.355 103.513 249.17C100.029 254.462 93.5364 257.01 86.468 257.01C78.7077 257.01 71.7972 253.37 67.3494 247.704C61.8092 242.764 54.5047 239.762 46.4993 239.762C29.1862 239.762 15.1512 253.802 15.1512 271.122C15.1512 288.441 29.1862 302.481 46.4993 302.481C53.4747 302.481 61.0539 301.147 65.1256 296.348C70.794 289.667 77.2584 283.666 86.468 283.666C93.5364 283.666 101.834 286.663 104.339 291.505C104.981 292.746 105.613 294.957 106.258 297.561V365.656C106.258 374.438 113.375 381.558 122.154 381.558H365.255C374.034 381.558 381.151 374.438 381.151 365.656V174.825C381.151 166.042 374.034 158.922 365.255 158.922H273.548C268.875 158.212 264.763 157.391 262.982 156.218C257.691 152.733 255.143 146.239 255.143 139.17C255.143 131.409 258.783 124.497 264.448 120.049C269.388 114.508 272.389 107.202 272.389 99.196C272.389 81.8808 258.351 67.844 241.033 67.844C223.716 67.844 209.677 81.8808 209.677 99.196C209.677 106.172 211.012 113.753 215.81 117.825C222.49 123.494 228.491 129.959 228.491 139.17C228.491 146.239 225.494 154.538 220.652 157.044ZM159.576 195.151H218.036C223.202 195.151 227.39 199.366 227.39 204.565C227.39 209.765 223.202 213.979 218.036 213.979H159.576C154.41 213.979 150.222 209.765 150.222 204.565C150.222 199.366 154.41 195.151 159.576 195.151ZM199.329 261.049H295.203C300.369 261.049 304.557 265.264 304.557 270.464C304.557 275.663 300.369 279.878 295.203 279.878H199.329C194.163 279.878 189.975 275.663 189.975 270.464C189.975 265.264 194.163 261.049 199.329 261.049ZM258.185 228.1H176.341C171.175 228.1 166.988 232.315 166.988 237.514C166.988 242.714 171.175 246.928 176.341 246.928H258.185C263.351 246.928 267.539 242.714 267.539 237.514C267.539 232.315 263.351 228.1 258.185 228.1ZM199.329 293.999H334.956C340.122 293.999 344.31 298.213 344.31 303.413C344.31 308.612 340.122 312.827 334.956 312.827H199.329C194.163 312.827 189.975 308.612 189.975 303.413C189.975 298.213 194.163 293.999 199.329 293.999ZM209.079 326.948H176.341C171.175 326.948 166.988 331.162 166.988 336.362C166.988 341.561 171.175 345.776 176.341 345.776H209.079C214.245 345.776 218.432 341.561 218.432 336.362C218.432 331.162 214.245 326.948 209.079 326.948ZM237.76 326.948H258.805C263.971 326.948 268.159 331.162 268.159 336.362C268.159 341.561 263.971 345.776 258.805 345.776H237.76C232.594 345.776 228.406 341.561 228.406 336.362C228.406 331.162 232.594 326.948 237.76 326.948Z" fill="white"/>
</g>
</g>
<defs>
<filter id="filter0_dd" x="0.151245" y="57.844" width="396" height="343.714" filterUnits="userSpaceOnUse" color-interpolation-filters="sRGB">
<feFlood flood-opacity="0" result="BackgroundImageFix"/>
<feColorMatrix in="SourceAlpha" type="matrix" values="0 0 0 0 0 0 0 0 0 0 0 0 0 0 0 0 0 0 127 0"/>
<feOffset dy="5"/>
<feGaussianBlur stdDeviation="7.5"/>
<feColorMatrix type="matrix" values="0 0 0 0 0 0 0 0 0 0 0 0 0 0 0 0 0 0 0.1 0"/>
<feBlend mode="normal" in2="BackgroundImageFix" result="effect1_dropShadow"/>
<feColorMatrix in="SourceAlpha" type="matrix" values="0 0 0 0 0 0 0 0 0 0 0 0 0 0 0 0 0 0 127 0"/>
<feOffset dy="2"/>
<feGaussianBlur stdDeviation="2.5"/>
<feColorMatrix type="matrix" values="0 0 0 0 0 0 0 0 0 0 0 0 0 0 0 0 0 0 0.05 0"/>
<feBlend mode="normal" in2="effect1_dropShadow" result="effect2_dropShadow"/>
<feBlend mode="normal" in="SourceGraphic" in2="effect2_dropShadow" result="shape"/>
</filter>
</defs>
</svg>
