<svg width="250" height="196" viewBox="0 0 250 196" fill="none" xmlns="http://www.w3.org/2000/svg">
<g id="lsb-guide-thumb/addons">
<g id="Path 2" filter="url(#filter0_dd)">
<path fill-rule="evenodd" clip-rule="evenodd" d="M125.824 57.5075C125.187 57.8371 124.061 58.1621 122.732 58.4932H74.1531C69.5475 58.4932 65.8139 62.2281 65.8139 66.8355V100.154C65.4366 102.663 65.0011 104.884 64.3743 105.836C62.5463 108.612 59.1404 109.949 55.4324 109.949C51.3614 109.949 47.7363 108.039 45.403 105.067C42.4966 102.475 38.6648 100.901 34.4652 100.901C25.3829 100.901 18.0203 108.266 18.0203 117.352C18.0203 126.437 25.3829 133.803 34.4652 133.803C38.1244 133.803 42.1004 133.103 44.2364 130.585C47.21 127.08 50.6011 123.932 55.4324 123.932C59.1404 123.932 63.4934 125.505 64.8075 128.045C65.144 128.695 65.4757 129.856 65.8139 131.222V166.943C65.8139 171.551 69.5475 175.286 74.1531 175.286H201.681C206.287 175.286 210.02 171.551 210.02 166.943V66.8355C210.02 62.2281 206.287 58.4932 201.681 58.4932H153.572C151.121 58.1206 148.964 57.6896 148.03 57.0743C145.254 55.2461 143.918 51.8397 143.918 48.1312C143.918 44.0597 145.827 40.4341 148.799 38.1005C151.39 35.1938 152.965 31.3614 152.965 27.1613C152.965 18.0779 145.6 10.7144 136.516 10.7144C127.431 10.7144 120.067 18.0779 120.067 27.1613C120.067 30.821 120.767 34.7975 123.284 36.9338C126.788 39.9077 129.936 43.2993 129.936 48.1312C129.936 51.8397 128.364 56.1933 125.824 57.5075ZM93.7841 77.4985H124.452C127.162 77.4985 129.358 79.7096 129.358 82.437C129.358 85.1645 127.162 87.3755 124.452 87.3755H93.7841C91.0742 87.3755 88.8773 85.1645 88.8773 82.437C88.8773 79.7096 91.0742 77.4985 93.7841 77.4985ZM114.638 112.068H164.933C167.643 112.068 169.84 114.279 169.84 117.007C169.84 119.734 167.643 121.945 164.933 121.945H114.638C111.928 121.945 109.731 119.734 109.731 117.007C109.731 114.279 111.928 112.068 114.638 112.068ZM145.514 94.7833H102.579C99.869 94.7833 97.6722 96.9943 97.6722 99.7218C97.6722 102.449 99.869 104.66 102.579 104.66H145.514C148.223 104.66 150.42 102.449 150.42 99.7218C150.42 96.9943 148.223 94.7833 145.514 94.7833ZM114.638 129.353H185.787C188.497 129.353 190.694 131.564 190.694 134.291C190.694 137.019 188.497 139.23 185.787 139.23H114.638C111.928 139.23 109.731 137.019 109.731 134.291C109.731 131.564 111.928 129.353 114.638 129.353ZM119.753 146.638H102.579C99.869 146.638 97.6722 148.849 97.6722 151.576C97.6722 154.304 99.869 156.515 102.579 156.515H119.753C122.463 156.515 124.66 154.304 124.66 151.576C124.66 148.849 122.463 146.638 119.753 146.638ZM134.799 146.638H145.839C148.549 146.638 150.746 148.849 150.746 151.576C150.746 154.304 148.549 156.515 145.839 156.515H134.799C132.089 156.515 129.892 154.304 129.892 151.576C129.892 148.849 132.089 146.638 134.799 146.638Z" fill="white"/>
</g>
</g>
<defs>
<filter id="filter0_dd" x="3.02032" y="0.714355" width="222" height="194.571" filterUnits="userSpaceOnUse" color-interpolation-filters="sRGB">
<feFlood flood-opacity="0" result="BackgroundImageFix"/>
<feColorMatrix in="SourceAlpha" type="matrix" values="0 0 0 0 0 0 0 0 0 0 0 0 0 0 0 0 0 0 127 0"/>
<feOffset dy="5"/>
<feGaussianBlur stdDeviation="7.5"/>
<feColorMatrix type="matrix" values="0 0 0 0 0 0 0 0 0 0 0 0 0 0 0 0 0 0 0.1 0"/>
<feBlend mode="normal" in2="BackgroundImageFix" result="effect1_dropShadow"/>
<feColorMatrix in="SourceAlpha" type="matrix" values="0 0 0 0 0 0 0 0 0 0 0 0 0 0 0 0 0 0 127 0"/>
<feOffset dy="2"/>
<feGaussianBlur stdDeviation="2.5"/>
<feColorMatrix type="matrix" values="0 0 0 0 0 0 0 0 0 0 0 0 0 0 0 0 0 0 0.05 0"/>
<feBlend mode="normal" in2="effect1_dropShadow" result="effect2_dropShadow"/>
<feBlend mode="normal" in="SourceGraphic" in2="effect2_dropShadow" result="shape"/>
</filter>
</defs>
</svg>
